<svg id="Layer_1" data-name="Layer 1" xmlns="http://www.w3.org/2000/svg" viewBox="0 0 292.99 221.1"><defs><style>.cls-1,.cls-2{fill:none;stroke:#000;stroke-miterlimit:10;}.cls-1{stroke-width:2px;}</style></defs><title>cloud</title><path class="cls-1" d="M258.24 112a34.62 34.62 0 0 0-6.94.7 42.7 42.7 0 0 0 4.69-19.45c0-25.27-22.16-45.75-49.5-45.75a52.83 52.83 0 0 0-19.45 3.67C180.48 22.53 152.4 1 118.74 1 80.22 1 48.99 29.2 48.99 64v1.76a32.35 32.35 0 0 0-17.56 29 32.83 32.83 0 0 0 5 17.55C15.54 118.61.9 133.22.9 150.25c0 22.78 26.19 41.25 58.5 41.25a81.61 81.61 0 0 0 15.78-1.53c4.46 17.1 27.93 30.14 56.22 30.14 23.82 0 44.22-9.25 52.74-22.37a43.83 43.83 0 0 0 69.86-20 34.79 34.79 0 0 0 4.14.26c18.64 0 33.75-14.77 33.75-33s-15.02-33-33.65-33z"/><circle cx="100" cy="110.49" r="5"/><circle cx="186.17" cy="110.49" r="5"/><path class="cls-2" d="M120.99 144s19.5 19.5 39 0"/></svg>