<svg id="Layer_1" data-name="Layer 1" xmlns="http://www.w3.org/2000/svg" viewBox="0 0 292.99 221.1"><defs><style>.cls-1,.cls-2{fill:none;stroke:#000;stroke-miterlimit:10;}.cls-1{stroke-width:2px;}</style></defs><title>cloud</title><path class="cls-1" d="M274.49,134.19a34.62,34.62,0,0,0-6.94.7,42.7,42.7,0,0,0,4.69-19.45c0-25.27-22.16-45.75-49.5-45.75a52.83,52.83,0,0,0-19.45,3.67c-6.56-28.64-34.64-50.17-68.3-50.17-38.52,0-69.75,28.2-69.75,63,0,.59,0,1.17,0,1.76a32.35,32.35,0,0,0-17.56,29,32.83,32.83,0,0,0,5,17.55c-20.89,6.3-35.53,20.91-35.53,37.94,0,22.78,26.19,41.25,58.5,41.25a81.61,81.61,0,0,0,15.78-1.53c4.46,17.1,27.93,30.14,56.22,30.14,23.82,0,44.22-9.25,52.74-22.37a43.83,43.83,0,0,0,69.86-20,34.79,34.79,0,0,0,4.14.26c18.64,0,33.75-14.77,33.75-33S293.12,134.19,274.49,134.19Z" transform="translate(-16.25 -22.19)"/><circle cx="100" cy="110.49" r="5"/><circle cx="186.17" cy="110.49" r="5"/><path class="cls-2" d="M137.24,166.19s19.5,19.5,39,0" transform="translate(-16.25 -22.19)"/></svg>